<?xml version="1.0" encoding="UTF-8" standalone="no"?>
<svg xmlns:svg="http://www.w3.org/2000/svg" xmlns="http://www.w3.org/2000/svg"
    version="1.1" width="200px" height="120px" viewBox="-100 0 200 120">
	<defs />
	<g style="stroke :none; fill-rule :evenodd;">
		<rect style="fill :#F0CA00;" x="-100.00" y="0.00"  width="200.0" height="120.0" rx="22.25" ry="22.25" />
		<rect style="fill :#000000;" x="-95.75"  y="4.25"  width="191.5" height="111.5" rx="18.00" ry="18.00" />
		<rect style="fill :#F0CA00;" x="-88.75"  y="11.25" width="177.5" height="97.5"  rx="11.00" ry="11.00" />
		<path transform="translate(-25.0,0)" id="PfadZ" style="fill :#000000;" d="M -21.494,84.072 L -21.494,74.976 L 1.04,26.769 L 11.8,26.769 L -10.967,74.976 L 6.58,74.976 L 6.58,55.582 L 16.23,55.582 L 16.23,74.976 L 21.63,74.976 L 21.63,84.072 L 16.23,84.072 L 16.23,94.046 L 6.58,94.046 L 6.58,84.072 L -21.494,84.072 z" />
		<path transform="translate( 26.0,0)" id="PfadE" style="fill :#000000;" d="M -9.581,45.47 Q -9.581,50.226 -6.626,52.673 -3.671,55.121 0.07,55.121 3.76,55.121 6.72,52.673 9.67,50.226 9.72,45.47 9.72,40.76 6.76,38.313 3.81,35.866 0.07,35.819 -3.625,35.819 -6.58,38.267 -9.535,40.714 -9.581,45.47 z M -20.432,74.422 Q -20.432,64.586 -12.49,59.276 -15.492,56.598 -17.339,53.366 -19.186,50.134 -19.232,45.655 -19.232,37.528 -13.691,31.848 -8.15,26.169 0.07,26.169 8.24,26.169 13.78,31.848 19.32,37.528 19.37,45.655 19.37,50.088 17.48,53.32 15.58,56.552 12.68,59.276 20.57,64.633 20.57,74.422 20.57,83.38 14.52,88.967 8.47,94.554 0.07,94.6 -8.335,94.6 -14.384,89.013 -20.432,83.426 -20.432,74.422 z M -10.782,74.329 Q -10.782,78.947 -7.55,81.948 -4.317,84.95 0.07,84.996 4.36,84.996 7.64,81.994 10.92,78.993 10.97,74.329 10.97,69.712 7.69,66.664 4.41,63.617 0.07,63.617 -4.271,63.617 -7.503,66.664 -10.736,69.712 -10.782,74.329 z" />
	</g>
</svg>
